<mxfile host="app.diagrams.net" modified="2024-02-22T08:12:16.356Z" agent="Mozilla/5.0 (Windows NT 10.0; Win64; x64) AppleWebKit/537.36 (KHTML, like Gecko) Chrome/121.0.0.0 Safari/537.36" version="23.0.2" etag="MZgWnNf_cFlkapWAEX9I" type="github">
  <diagram name="Sida-1" id="ydKVtQEPHB9de50PJjMJ">
    <mxGraphModel>
      <root>
        <mxCell id="0" />
        <mxCell id="1" parent="0" />
      </root>
    </mxGraphModel>
  </diagram>
</mxfile>
